<svg width="61" height="61" viewBox="0 0 61 61" fill="none" xmlns="http://www.w3.org/2000/svg">
<path d="M34.0813 59.2929L59.2896 34.0846C59.7486 33.6051 60.1084 33.0397 60.3484 32.4208C60.8526 31.1934 60.8526 29.8166 60.3484 28.5892C60.1084 27.9703 59.7486 27.4049 59.2896 26.9254L34.0813 1.71709C33.6112 1.24701 33.0531 0.874125 32.439 0.619721C31.8248 0.365317 31.1665 0.234375 30.5017 0.234375C29.1591 0.234375 27.8715 0.767723 26.9221 1.71709C25.9728 2.66645 25.4394 3.95407 25.4394 5.29667C25.4394 6.63928 25.9728 7.92689 26.9221 8.87625L43.5596 25.4633L5.29337 25.4633C3.95624 25.4633 2.67387 25.9945 1.72837 26.94C0.782875 27.8855 0.251705 29.1679 0.251705 30.505C0.251705 31.8421 0.782875 33.1245 1.72837 34.07C2.67387 35.0155 3.95624 35.5467 5.29337 35.5467L43.5596 35.5467L26.9221 52.1338C26.4496 52.6024 26.0745 53.1601 25.8185 53.7744C25.5626 54.3888 25.4308 55.0478 25.4308 55.7133C25.4308 56.3789 25.5626 57.0379 25.8185 57.6522C26.0745 58.2666 26.4496 58.8242 26.9221 59.2929C27.3908 59.7655 27.9484 60.1405 28.5628 60.3965C29.1772 60.6525 29.8361 60.7842 30.5017 60.7842C31.1673 60.7842 31.8262 60.6525 32.4406 60.3965C33.055 60.1405 33.6126 59.7655 34.0813 59.2929Z" fill="#FFD913"/>
</svg>
