<svg width="47" height="47" viewBox="0 0 47 47" fill="none" xmlns="http://www.w3.org/2000/svg">
<path d="M1.8497 26.1954L20.808 45.1537C21.1686 45.4989 21.5938 45.7695 22.0593 45.9499C22.9824 46.3292 24.0178 46.3292 24.9409 45.9499C25.4064 45.7695 25.8316 45.4989 26.1922 45.1537L45.1505 26.1954C45.5041 25.8418 45.7845 25.4221 45.9758 24.9602C46.1671 24.4983 46.2656 24.0032 46.2656 23.5033C46.2656 22.4936 45.8645 21.5252 45.1505 20.8112C44.4365 20.0972 43.4682 19.6961 42.4584 19.6961C41.4487 19.6961 40.4803 20.0972 39.7664 20.8112L27.2918 33.3237L27.2918 4.54495C27.2918 3.53934 26.8923 2.57491 26.1812 1.86383C25.4701 1.15276 24.5057 0.753284 23.5001 0.753284C22.4945 0.753284 21.5301 1.15276 20.819 1.86383C20.1079 2.57491 19.7084 3.53934 19.7084 4.54495L19.7084 33.3237L7.23386 20.8112C6.88137 20.4558 6.46201 20.1737 5.99997 19.9812C5.53791 19.7887 5.04232 19.6896 4.54178 19.6896C4.04123 19.6896 3.54564 19.7887 3.08359 19.9812C2.62154 20.1737 2.20218 20.4558 1.8497 20.8112C1.49431 21.1637 1.21223 21.583 1.01973 22.0451C0.827232 22.5071 0.728127 23.0027 0.728127 23.5033C0.728127 24.0038 0.827232 24.4994 1.01973 24.9615C1.21223 25.4235 1.49431 25.8429 1.8497 26.1954Z" fill="black"/>
</svg>
